<?xml version="1.0" encoding="utf-8"?>
<!-- Generator: Adobe Illustrator 25.4.1, SVG Export Plug-In . SVG Version: 6.00 Build 0)  -->
<svg version="1.1" id="Layer_1" xmlns="http://www.w3.org/2000/svg" xmlns:xlink="http://www.w3.org/1999/xlink" width="180" height="52" transform="translate(0,10)">

<style type="text/css">
	.st0{fill:#DD1367;}
	.st1{opacity:0.2;}
	.st2{fill:#FFFFFF;}
	.st3{fill:#EAC6BB;}
	.st4{fill:#DBADA2;}
	.st5{font-family:'ArialRoundedMTBold';}
	.st6{font-size:23.6875px;}
</style>
<path class="st0" d="M52,26c0,14.4-11.6,26-26,26S0,40.4,0,26S11.7,0,26,0l0,0C40.4,0,52,11.6,52,26z"/>
<g class="st1">
	<path class="st2" d="M26,0c-0.7,0-1.5,0-2.2,0.1C37.2,1.2,47.7,12.4,47.7,26S37.2,50.8,23.9,51.9C24.6,52,25.3,52,26,52
		c14.4,0,26-11.6,26-26C52,11.6,40.4,0,26,0L26,0z"/>
</g>
<path class="st3" d="M13.7,26.4c-0.2-2.7,0.8-3.2,2.3-4c1.4-0.7,3.3-1.8,3.4-5c0.1-2.6-1.7-5.6-5.3-8.8c-1.2-1.1-2.5-2.1-3.9-3.1
	C9.5,6,8.9,6.4,8.4,7c1.5,1,2.8,2.1,4.1,3.2c3.1,2.8,4.7,5.2,4.6,7.1c0,2-0.9,2.4-2.2,3.2c-1.6,0.8-3.7,2-3.4,6.1
	c0.1,1.8,1.1,3.4,2.8,4.6c1.3,0.9,3,1.7,5.1,2.4c2.3,0.7,4.6,1.1,7,1.3l0.1-2.2c-2.2-0.2-4.4-0.6-6.5-1.2
	C17.2,30.6,13.9,29.1,13.7,26.4z"/>
<path class="st4" d="M37.2,26.5l-4.6-7.6c0-0.1-0.1-0.2-0.1-0.2l-1.8,1.2l0,0c0.1,0.3-0.2,1.5-1.3,2.9c-1.1,1.5-2.5,2.4-3.6,2.4
	c-0.1,0-0.1,0-0.2,0L21,23.5l-2.1,3.6l3.4,3.3c-1.3,1.3-1.8,2.9-2.1,3.8l-0.1,0.3c-0.1,0-0.1,0-0.2,0c-0.1,0-0.2-0.1-0.2-0.1
	c-0.6-0.3-1.2-0.5-1.9-0.5c-0.1,0-0.2,0-0.3,0c-1.1,0-2.3,0.6-3.5,1.9c-0.5,0.5-1,1.1-1.4,1.7l-0.5,0.7l3.6,3.9l2.1-0.9
	c1.9,2,4.3,3.1,6.9,3.1l0,0c2.3,0,4.7-0.8,7-2.4c2.1-1.4,3.8-3.4,5.1-5.6C38.8,32.8,38.9,29.2,37.2,26.5z"/>
<path class="st3" d="M33.3,7.9C27.6,7.9,23,12.5,23,18.1c0,5.6,4.6,10.2,10.2,10.2s10.2-4.6,10.2-10.2l0,0
	C43.5,12.5,38.9,7.9,33.3,7.9z"/>
<text transform="matrix(1 0 0 1 58.7266 36.8726)" class="st5 st6">23 WEEKS</text>
</svg>
