<svg id="Layer_1" data-name="Layer 1" xmlns="http://www.w3.org/2000/svg" width="180px" height="52px" viewBox="0 0 1215.16 351.24">
  <defs>
    <style>
      .cls-1{fill:#ed5564;}.cls-2{opacity:0.2;}.cls-3{fill:#fff;}.cls-4{fill:#eac6bb;}.cls-5{fill:#dbada2;}.cls-6{font-size:160px;font-family:ArialRoundedMTBold, Arial Rounded MT Bold;}
    </style>
  </defs>
  <path class="cls-1" d="M393.87,360A175.62,175.62,0,1,1,218.25,184.38,175.62,175.62,0,0,1,393.87,360Z" transform="translate(-42.63 -184.38)"/>
  <g class="cls-2">
    <path class="cls-3" d="M218.25,184.38q-7.4,0-14.64.6c90.14,7.44,161,83,161,175s-70.86,167.58-161,175q7.24.6,14.64.6a175.62,175.62,0,0,0,0-351.24Z" transform="translate(-42.63 -184.38)"/>
  </g>
  <path class="cls-4" d="M134.67,362.49c-1.28-18.15,5.27-21.69,15.2-27,9.4-5.06,22.26-12,22.78-33.81.41-17.63-11.75-37.63-36.12-59.47a281.47,281.47,0,0,0-26.23-20.7q-6,4.67-11.53,9.83a272.15,272.15,0,0,1,28,21.77c20.75,18.58,31.55,35.26,31.26,48.22-.32,13.33-6.19,16.49-15.09,21.28-10.47,5.65-24.81,13.38-22.86,40.95.86,12.13,7.2,22.68,18.84,31.33,8.58,6.37,20.12,11.72,34.3,15.91a235.78,235.78,0,0,0,47.25,8.45l.88-14.61a225.1,225.1,0,0,1-44.2-7.93C158.48,391.13,136,380.7,134.67,362.49Z" transform="translate(-42.63 -184.38)"/>
  <path class="cls-5" d="M293.57,363.27l-31.2-51.08a12.86,12.86,0,0,0-1-1.58l-12.11,8.19.17.29c.43,2-1.34,10.15-8.51,19.9-7.62,10.36-16.81,16.54-24.6,16.54-.35,0-.7,0-1.05,0l-31.4-12.18-14.18,24.56,23.24,22.27c-8.8,8.91-12.13,19.37-14.09,25.51l-.56,1.74a4.69,4.69,0,0,1-1.31.3,12.71,12.71,0,0,1-1.68-.71,37.78,37.78,0,0,0-12.91-3.59,19.57,19.57,0,0,0-2-.1c-7.43,0-15.31,4.25-23.41,12.66a86.42,86.42,0,0,0-9.29,11.5l-3.13,4.78,24.26,26.21,14.17-6.16c12.86,13.65,28.86,20.82,46.57,20.82h0c15.64,0,32-5.54,47.23-16a112.78,112.78,0,0,0,34.36-37.64C304.18,405.75,305.09,381.63,293.57,363.27Z" transform="translate(-42.63 -184.38)"/>
  <path class="cls-4" d="M266.94,237.8a69,69,0,1,0,69,69A69.08,69.08,0,0,0,266.94,237.8Z" transform="translate(-42.63 -184.38)"/>
  <text class="cls-6" transform="translate(396.34 249.06)">23 WEEKS</text>
</svg>