<?xml version="1.0" encoding="utf-8"?>
<!-- Generator: Adobe Illustrator 25.4.1, SVG Export Plug-In . SVG Version: 6.00 Build 0)  -->
<svg version="1.1" id="Layer_1" xmlns="http://www.w3.org/2000/svg" xmlns:xlink="http://www.w3.org/1999/xlink" width="180" height="52" transform="translate(0,10)">
<style type="text/css">
	.st0{fill:#DD1367;}
	.st1{opacity:0.2;}
	.st2{fill:#FFFFFF;}
	.st3{fill:#EAC6BB;}
	.st4{fill:#DBADA2;}
</style>
<path class="st0" d="M50,35c0,13.8-11.2,25-25,25C11.2,60,0,48.8,0,35s11.2-25,25-25C38.8,10,50,21.2,50,35z"/>
<g class="st1">
	<path class="st2" d="M25,10c-0.7,0-1.4,0-2.1,0.1C35.7,11.1,45.8,21.9,45.8,35c0,13.1-10.1,23.9-22.9,24.9C23.6,60,24.3,60,25,60
		c13.8,0,25-11.2,25-25S38.8,10,25,10z"/>
</g>
<path class="st3" d="M13.1,35.4c-0.2-2.6,0.8-3.1,2.2-3.8c1.3-0.7,3.2-1.7,3.2-4.8c0.1-2.5-1.7-5.4-5.1-8.5C12,17,10.6,16,9.6,15.3
	c-0.6,0.4-1.1,0.9-1.6,1.4c0.9,0.6,2.4,1.7,4,3.1c3,2.6,4.5,5,4.4,6.9c0,1.9-0.9,2.3-2.1,3c-1.5,0.8-3.5,1.9-3.3,5.8
	c0.1,1.7,1,3.2,2.7,4.5c1.2,0.9,2.9,1.7,4.9,2.3c3.3,1,6.6,1.2,6.7,1.2l0.1-2.1c0,0-3.2-0.2-6.3-1.1C16.5,39.4,13.3,37.9,13.1,35.4z
	"/>
<path class="st4" d="M35.7,35.5l-4.4-7.3c0-0.1-0.1-0.2-0.1-0.2l-1.7,1.2l0,0c0.1,0.3-0.2,1.4-1.2,2.8c-1.1,1.5-2.4,2.4-3.5,2.4
	c0,0-0.1,0-0.1,0l-4.5-1.7l-2,3.5l3.3,3.2c-1.3,1.3-1.7,2.8-2,3.6c0,0.1-0.1,0.2-0.1,0.2c-0.1,0-0.2,0-0.2,0c0,0-0.2-0.1-0.2-0.1
	C18.5,43,18,42.7,17,42.6c-0.1,0-0.2,0-0.3,0c-1.1,0-2.2,0.6-3.3,1.8c-0.8,0.8-1.3,1.6-1.3,1.6l-0.4,0.7l3.5,3.7l2-0.9
	c1.8,1.9,4.1,3,6.6,3l0,0c2.2,0,4.6-0.8,6.7-2.3c2-1.4,3.7-3.3,4.9-5.4C37.2,41.5,37.4,38.1,35.7,35.5z"/>
<path class="st3" d="M31.9,17.6c-5.4,0-9.8,4.4-9.8,9.8c0,5.4,4.4,9.8,9.8,9.8c5.4,0,9.8-4.4,9.8-9.8C41.8,22,37.3,17.6,31.9,17.6z"
	/>
</svg>
